<svg width="18" height="18" viewBox="0 0 18 18" fill="none" xmlns="http://www.w3.org/2000/svg">
<path d="M8.99927 0.25C8.68096 0.25 8.36898 0.33895 8.09853 0.506815C7.82808 0.674682 7.60992 0.914783 7.46866 1.20003L5.68948 4.80758L1.71043 5.38773C1.39519 5.43375 1.09912 5.56706 0.855706 5.7726C0.612292 5.97814 0.43126 6.2477 0.333082 6.55077C0.234903 6.85384 0.223495 7.17834 0.300153 7.48757C0.376757 7.79657 0.538737 8.07846 0.766854 8.30051L3.64453 11.1044L2.96066 15.0665C2.90655 15.3805 2.94145 15.7034 3.06141 15.9985C3.18137 16.2937 3.38159 16.5494 3.6394 16.7366C3.89721 16.9238 4.2023 17.0351 4.5201 17.0579C4.83764 17.0806 5.15591 17.0136 5.43757 16.8653L8.99955 14.9951L12.5576 16.8656L12.5591 16.8664C12.8408 17.0153 13.1586 17.0824 13.4765 17.06C13.7949 17.0376 14.1007 16.9264 14.3591 16.739C14.6175 16.5515 14.8182 16.2954 14.9383 15.9996C15.0584 15.704 15.0932 15.3803 15.0388 15.0658L14.3541 11.1044L17.2317 8.30051C17.4601 8.07839 17.6217 7.79679 17.6984 7.48757C17.775 7.17835 17.7636 6.85385 17.6654 6.55077C17.5673 6.2477 17.3862 5.97814 17.1428 5.7726C16.8994 5.56706 16.6032 5.43373 16.288 5.38771L12.309 4.80758L10.5304 1.20113L10.5299 1.20003C10.3886 0.914783 10.1705 0.674682 9.9 0.506815C9.62955 0.33895 9.31758 0.25 8.99927 0.25Z" fill="#008697"/>
</svg>
